<?xml version="1.0" standalone="no"?>
<!DOCTYPE svg PUBLIC "-//W3C//DTD SVG 20010904//EN"
 "http://www.w3.org/TR/2001/REC-SVG-20010904/DTD/svg10.dtd">
<svg version="1.0" xmlns="http://www.w3.org/2000/svg"
 width="512.000000pt" height="512.000000pt" viewBox="0 0 512.000000 512.000000"
 preserveAspectRatio="xMidYMid meet">
<metadata>
Created by potrace 1.11, written by Peter Selinger 2001-2013
</metadata>
<g transform="translate(0.000000,512.000000) scale(0.100000,-0.100000)"
fill="#000000" stroke="none">
<path d="M2686 4679 c-92 -224 -131 -350 -159 -516 -3 -15 -26 -125 -52 -243
-41 -193 -55 -257 -71 -340 -3 -14 -9 -44 -15 -68 -5 -24 -12 -172 -15 -330
-5 -254 -10 -444 -13 -478 -1 -7 -53 -44 -115 -83 -63 -40 -141 -91 -173 -115
-32 -24 -69 -49 -83 -56 -64 -34 -171 -122 -289 -238 -52 -50 -90 -81 -99 -77
-8 3 -24 8 -36 11 -15 3 -27 20 -40 55 -9 28 -31 71 -47 97 -16 25 -29 51 -29
57 0 21 -99 113 -145 134 -91 43 -227 48 -330 12 -176 -60 -309 -198 -359
-371 -32 -114 -40 -261 -17 -336 36 -115 134 -238 228 -285 43 -22 61 -24 174
-24 125 0 125 0 203 38 92 46 194 144 399 381 170 197 282 263 512 304 51 9
291 9 300 0 8 -8 9 -221 1 -270 -3 -18 -8 -58 -11 -89 -3 -31 -8 -67 -10 -80
-3 -13 -7 -37 -10 -52 -16 -87 -108 -280 -199 -417 -76 -114 -100 -153 -101
-160 0 -3 -8 -16 -17 -30 -28 -44 -122 -223 -150 -285 -75 -171 -71 -280 18
-416 149 -228 400 -285 613 -140 126 86 216 227 238 374 11 79 8 217 -6 262
-21 65 -59 138 -93 179 -35 43 -147 119 -223 152 -27 12 -62 37 -77 54 l-26
32 48 72 c53 80 124 212 158 297 39 97 105 382 127 551 5 42 11 51 58 85 29
21 59 43 67 50 111 89 965 721 992 735 121 59 468 416 555 570 60 105 175 409
161 424 -3 2 -39 -17 -79 -44 -41 -27 -105 -69 -144 -94 -106 -69 -785 -509
-1090 -706 -148 -97 -308 -200 -355 -230 -47 -30 -91 -59 -98 -65 -13 -10 -13
7 3 693 3 129 7 336 10 460 2 124 7 354 11 513 3 158 4 287 2 287 -2 0 -48
-109 -102 -241z m-1475 -2341 c30 -14 72 -40 92 -58 48 -42 95 -140 100 -210
13 -169 -121 -369 -283 -421 -52 -17 -149 -10 -216 16 -84 32 -158 139 -169
246 -12 105 33 255 98 329 35 39 109 97 147 114 52 23 162 16 231 -16z m1237
-1263 c59 -31 90 -59 128 -115 49 -72 62 -109 70 -205 16 -171 -166 -397 -327
-407 -99 -7 -205 65 -259 175 -44 91 -57 200 -29 257 9 19 17 38 18 43 0 4 12
28 25 55 63 122 193 219 299 221 15 1 49 -10 75 -24z"/>
</g>
</svg>
